<svg width="128" height="128" viewBox="0 0 128 128" fill="none" xmlns="http://www.w3.org/2000/svg">
  <ellipse cx="64" cy="110" rx="22" ry="10" fill="#7AA7C7" fill-opacity="0.3"/>
  <ellipse cx="64" cy="48" rx="24" ry="25" fill="#FFE2C4"/>
  <circle cx="56" cy="47" r="3.5" fill="#332F2E"/>
  <circle cx="72" cy="47" r="3.5" fill="#332F2E"/>
  <path d="M54 59C57 64 71 64 74 59" stroke="#6D4C41" stroke-width="3" stroke-linecap="round"/>
  <path d="M40 40C40 26 52 18 64 18C76 18 88 26 88 40V44H40V40Z" fill="#5D4A6D"/>
  <rect x="46" y="72" width="36" height="30" rx="10" fill="#4EADE1"/>
  <rect x="42" y="76" width="8" height="26" rx="4" fill="#F8C9A5"/>
  <rect x="78" y="76" width="8" height="26" rx="4" fill="#F8C9A5"/>
  <rect x="50" y="100" width="10" height="18" rx="4" fill="#2F7EA8"/>
  <rect x="68" y="100" width="10" height="18" rx="4" fill="#2F7EA8"/>
</svg>
